<svg width="24" height="24" viewBox="0 0 24 24" fill="none" xmlns="http://www.w3.org/2000/svg">
<path d="M12 6.26131C13.8691 6.26131 14.0904 6.26842 14.8285 6.30205C15.511 6.33323 15.8817 6.44725 16.1284 6.54312C16.4551 6.6701 16.6883 6.82181 16.9332 7.06675C17.1782 7.3117 17.3299 7.54488 17.4569 7.87159C17.5527 8.11828 17.6668 8.48895 17.6979 9.1714C17.7316 9.90957 17.7387 10.1309 17.7387 12C17.7387 13.8691 17.7316 14.0905 17.6979 14.8286C17.6668 15.5111 17.5527 15.8817 17.4569 16.1284C17.3299 16.4551 17.1782 16.6884 16.9332 16.9333C16.6883 17.1783 16.4551 17.33 16.1284 17.4569C15.8817 17.5528 15.511 17.6668 14.8285 17.6979C14.0905 17.7316 13.8692 17.7387 12 17.7387C10.1308 17.7387 9.90941 17.7316 9.1714 17.6979C8.4889 17.6668 8.11828 17.5528 7.87159 17.4569C7.54488 17.33 7.31164 17.1783 7.06669 16.9333C6.82175 16.6883 6.67005 16.4551 6.54312 16.1284C6.44725 15.8818 6.33317 15.5111 6.30205 14.8286C6.26837 14.0905 6.26126 13.8691 6.26126 12C6.26126 10.1309 6.26837 9.90957 6.30205 9.17145C6.33323 8.48895 6.44725 8.11828 6.54312 7.87159C6.67005 7.54488 6.82175 7.3117 7.06669 7.06675C7.31169 6.82175 7.54488 6.6701 7.87159 6.54312C8.11823 6.44725 8.4889 6.33323 9.1714 6.30205C9.90951 6.26842 10.1309 6.26131 12 6.26131ZM12 5C10.0989 5 9.86051 5.00804 9.11392 5.04211C8.3688 5.07613 7.85994 5.19447 7.41473 5.3675C6.95437 5.54638 6.56401 5.78575 6.17485 6.17491C5.7857 6.56406 5.54638 6.95442 5.3675 7.41473C5.19441 7.85999 5.07612 8.36886 5.04211 9.11392C5.00804 9.86052 5 10.0989 5 12C5 13.9011 5.00804 14.1395 5.04211 14.8861C5.07612 15.6312 5.19441 16.1401 5.3675 16.5853C5.54633 17.0456 5.7857 17.436 6.17485 17.8252C6.56401 18.2143 6.95437 18.4536 7.41473 18.6325C7.85999 18.8056 8.3688 18.9239 9.11387 18.9579C9.86051 18.992 10.0989 19 12 19C13.9011 19 14.1395 18.992 14.8861 18.9579C15.6311 18.9239 16.14 18.8056 16.5852 18.6325C17.0456 18.4537 17.4359 18.2143 17.8251 17.8252C18.2142 17.436 18.4536 17.0456 18.6325 16.5853C18.8055 16.14 18.9239 15.6312 18.9579 14.8861C18.992 14.1395 19 13.9011 19 12C19 10.0989 18.992 9.86052 18.9579 9.11392C18.9239 8.36886 18.8055 7.85999 18.6325 7.41478C18.4536 6.95442 18.2142 6.56406 17.8251 6.17491C17.4359 5.78575 17.0456 5.54633 16.5853 5.3675C16.14 5.19447 15.6311 5.07613 14.8861 5.04211C14.1395 5.00804 13.9011 5 12 5ZM12 8.40539C10.0147 8.40539 8.40539 10.0148 8.40539 12C8.40539 13.9853 10.0147 15.5946 12 15.5946C13.9852 15.5946 15.5946 13.9853 15.5946 12C15.5946 10.0148 13.9852 8.40539 12 8.40539ZM12 14.3334C10.7113 14.3334 9.66665 13.2887 9.66665 12C9.66665 10.7113 10.7113 9.66665 12 9.66665C13.2887 9.66665 14.3334 10.7113 14.3334 12C14.3334 13.2887 13.2887 14.3334 12 14.3334ZM16.5766 8.26337C16.5766 8.72734 16.2005 9.10337 15.7366 9.10337C15.2727 9.10337 14.8966 8.72734 14.8966 8.26337C14.8966 7.79945 15.2727 7.42337 15.7366 7.42337C16.2005 7.42337 16.5766 7.79945 16.5766 8.26337Z" fill="black"/>
</svg>
