<svg width="24" height="24" viewBox="0 0 24 24" fill="none" xmlns="http://www.w3.org/2000/svg">
<path d="M19 7.34684C18.4848 7.57527 17.9313 7.72966 17.3503 7.79911C17.9434 7.44364 18.3988 6.88074 18.6132 6.21005C18.0494 6.54462 17.4325 6.78035 16.7893 6.90705C16.2653 6.34885 15.5189 6 14.6928 6C13.1065 6 11.8204 7.28603 11.8204 8.87219C11.8204 9.09734 11.8458 9.31652 11.8948 9.5268C9.50767 9.40698 7.39127 8.26352 5.97459 6.52577C5.7274 6.94998 5.58576 7.44342 5.58576 7.96973C5.58576 8.96625 6.09287 9.84535 6.86353 10.3604C6.40741 10.3461 5.96132 10.2229 5.56252 10.0011C5.56235 10.0132 5.56235 10.0252 5.56235 10.0373C5.56235 11.4289 6.55241 12.5898 7.86634 12.8537C7.44338 12.9687 6.99972 12.9855 6.56926 12.9029C6.93473 14.044 7.99551 14.8744 9.25234 14.8976C8.26933 15.668 7.03082 16.1272 5.68518 16.1272C5.4533 16.1272 5.22471 16.1135 5 16.087C6.2711 16.902 7.78086 17.3775 9.40289 17.3775C14.6861 17.3775 17.5751 13.0008 17.5751 9.20529C17.5751 9.08071 17.5723 8.95684 17.5667 8.83369C18.1291 8.42719 18.6144 7.9237 19 7.34684Z" fill="white"/>
</svg>
