<svg width="24" height="24" viewBox="0 0 24 24" fill="none" xmlns="http://www.w3.org/2000/svg">
<path fill-rule="evenodd" clip-rule="evenodd" d="M10.5908 9.57705V8.54386C10.5908 8.35558 10.6005 8.29279 10.6295 8.19619C10.707 7.93067 10.9686 7.73275 11.2785 7.73275C11.5884 7.73275 11.8498 7.93549 11.9273 8.19619C11.9564 8.29279 11.9661 8.35558 11.9661 8.54386V10.1371C11.9661 10.2337 11.9661 10.3302 11.9467 10.4171C11.8935 10.6585 11.6756 10.8758 11.4334 10.9289C11.3463 10.9482 11.2494 10.9482 11.1525 10.9482H9.55449C9.36564 10.9482 9.30266 10.9386 9.20578 10.9096C8.94429 10.8323 8.74095 10.5716 8.74095 10.2627C8.74095 9.95362 8.94429 9.69291 9.20578 9.61567C9.30266 9.58668 9.36564 9.57705 9.55449 9.57705H10.5908ZM16.2857 16.7999H7.71431V9.27291C7.71431 9.17631 7.74821 9.09426 7.81602 9.02665L10.0387 6.81052C10.1065 6.743 10.1888 6.7092 10.2857 6.7092H16.2857V16.7999ZM17.2591 5.00966C17.2155 5.00485 17.1574 5.00003 17.046 5.00003H10.0581C9.98068 5.00003 9.9032 5.00485 9.84989 5.00966C9.53025 5.03865 9.24452 5.18831 9.01693 5.41522L6.41644 8.00791C6.18894 8.2349 6.03874 8.51969 6.00975 8.83837C6.00483 8.89144 6 8.96868 6 9.04592V17.5579C6 17.6689 6.00483 17.7269 6.00975 17.7703C6.0484 18.1324 6.3777 18.4607 6.7409 18.4993C6.78456 18.5042 6.84262 18.509 6.954 18.509H17.046C17.1574 18.509 17.2155 18.5042 17.2591 18.4993C17.6223 18.4607 17.9516 18.1324 17.9903 17.7703C17.9951 17.7269 18 17.6689 18 17.5579V5.95116C18 5.84012 17.9951 5.78215 17.9903 5.73871C17.9516 5.3766 17.6223 5.04828 17.2591 5.00966Z" fill="black"/>
</svg>
