<svg width="24" height="24" viewBox="0 0 24 24" fill="none" xmlns="http://www.w3.org/2000/svg">
<path d="M19 7.34681C18.4848 7.57524 17.9313 7.72963 17.3503 7.79908C17.9434 7.44361 18.3988 6.88071 18.6132 6.21002C18.0494 6.54459 17.4325 6.78032 16.7893 6.90702C16.2653 6.34882 15.5189 5.99997 14.6928 5.99997C13.1065 5.99997 11.8204 7.286 11.8204 8.87216C11.8204 9.09731 11.8458 9.31649 11.8948 9.52677C9.50767 9.40695 7.39127 8.26349 5.97459 6.52574C5.7274 6.94995 5.58576 7.44339 5.58576 7.9697C5.58576 8.96622 6.09287 9.84532 6.86353 10.3604C6.40741 10.3461 5.96132 10.2229 5.56252 10.0011C5.56235 10.0132 5.56235 10.0252 5.56235 10.0373C5.56235 11.4289 6.55241 12.5898 7.86634 12.8537C7.44338 12.9687 6.99972 12.9855 6.56926 12.9029C6.93473 14.044 7.99551 14.8744 9.25234 14.8976C8.26933 15.668 7.03082 16.1272 5.68518 16.1272C5.4533 16.1272 5.22471 16.1135 5 16.087C6.2711 16.902 7.78086 17.3775 9.40289 17.3775C14.6861 17.3775 17.5751 13.0008 17.5751 9.20526C17.5751 9.08068 17.5723 8.95681 17.5667 8.83366C18.1291 8.42716 18.6144 7.92367 19 7.34681" fill="black"/>
</svg>
