<svg width="108" height="64" viewBox="0 0 108 64" fill="none" xmlns="http://www.w3.org/2000/svg">
<path d="M5.53531 37.4332C4.66815 37.4358 3.81625 37.2052 3.06884 36.7655C2.32142 36.3258 1.70599 35.6932 1.287 34.934C0.868003 34.1747 0.660867 33.3168 0.687282 32.45C0.713697 31.5833 0.972692 30.7396 1.43714 30.0073L7.01884 21.3109C7.26807 20.9198 7.40589 20.4681 7.41744 20.0044C7.429 19.5408 7.31385 19.0828 7.08441 18.6798L0.625703 7.2048C0.21012 6.47012 -0.00558226 5.63933 0.000109803 4.79528C0.00580187 3.95122 0.232689 3.12341 0.658143 2.39441C1.0836 1.66541 1.69274 1.0607 2.42483 0.640585C3.15692 0.220474 3.98636 -0.000350705 4.83042 0.000135603H27.313C28.158 -0.00623555 28.9896 0.212006 29.7226 0.632531C30.4557 1.05306 31.0638 1.66077 31.4849 2.39349C31.9112 3.12352 32.1359 3.95374 32.1359 4.79914C32.1359 5.64455 31.9112 6.47476 31.4849 7.2048L27.1654 14.9176C26.9418 15.3067 26.8241 15.7475 26.8241 16.1963C26.8241 16.645 26.9418 17.0859 27.1654 17.4749L33.7225 28.5729C34.1429 29.284 34.3742 30.091 34.3942 30.9168C34.4143 31.7427 34.2224 32.5599 33.837 33.2906C33.4515 34.0213 32.8853 34.641 32.1923 35.0907C31.4993 35.5404 30.7027 35.8051 29.8784 35.8595L5.7812 37.4168L5.53531 37.4332ZM4.83042 3.9754C4.68021 3.97201 4.53196 4.00997 4.40186 4.08514C4.27176 4.1603 4.16483 4.26979 4.09275 4.40162C4.02081 4.52622 3.98294 4.66756 3.98294 4.81144C3.98294 4.95532 4.02081 5.09666 4.09275 5.22126L10.5515 16.6963C11.1309 17.7285 11.42 18.8984 11.3883 20.0817C11.3565 21.265 11.0051 22.4176 10.3711 23.4173L4.82223 32.1383C4.7358 32.2713 4.6898 32.4265 4.6898 32.585C4.6898 32.7436 4.7358 32.8988 4.82223 33.0317C4.90133 33.1754 5.02173 33.2921 5.16786 33.3666C5.31398 33.4411 5.4791 33.4701 5.64186 33.4498L29.7391 31.8924C29.8848 31.8861 30.0262 31.841 30.1487 31.7617C30.2712 31.6825 30.3703 31.572 30.4358 31.4416C30.5077 31.317 30.5456 31.1757 30.5456 31.0318C30.5456 30.8879 30.5077 30.7466 30.4358 30.622L23.764 19.5076C23.1772 18.5173 22.8615 17.39 22.8485 16.239C22.8356 15.0879 23.1259 13.9538 23.6902 12.9505L28.0588 5.24585C28.1308 5.12125 28.1686 4.97991 28.1686 4.83603C28.1686 4.69215 28.1308 4.55081 28.0588 4.42621C27.9867 4.29438 27.8798 4.18489 27.7497 4.10973C27.6196 4.03456 27.4714 3.9966 27.3212 3.99999L4.83042 3.9754Z" fill="white"/>
<path d="M42.6157 36.5479C41.4639 36.5438 40.3515 36.1288 39.4785 35.3775C38.6055 34.6262 38.0293 33.588 37.8536 32.4497L35.3291 16.1388C35.1171 14.808 35.4094 13.4459 36.1488 12.3193L42.0747 3.42612C42.7735 2.37049 43.7234 1.50485 44.8393 0.906868C45.9551 0.308892 47.2019 -0.00271148 48.4679 1.77753e-05H63.9917C65.4236 0.00218566 66.7962 0.571961 67.8087 1.58446C68.8212 2.59696 69.3909 3.96958 69.3931 5.40146V31.63C69.3938 32.3894 69.2154 33.1381 68.8723 33.8155C68.5293 34.4929 68.0313 35.0799 67.4188 35.5287C66.8063 35.9775 66.0966 36.2755 65.3473 36.3984C64.598 36.5214 63.8303 36.4659 63.1065 36.2364L54.4758 33.507C53.7228 33.257 52.9092 33.257 52.1562 33.507L44.2549 36.2774C43.7282 36.4615 43.1736 36.553 42.6157 36.5479ZM48.4351 3.97529C47.826 3.97281 47.2257 4.12122 46.688 4.40727C46.1502 4.69332 45.6916 5.1081 45.3533 5.61457L39.4519 14.4995C39.2533 14.7955 39.1743 15.1557 39.2306 15.5077L41.796 31.8431C41.813 31.9669 41.858 32.0851 41.9276 32.1888C41.9972 32.2925 42.0896 32.3789 42.1977 32.4415C42.3035 32.5096 42.4237 32.5525 42.5487 32.5667C42.6738 32.5809 42.8005 32.5661 42.9189 32.5234L50.8366 29.7776C52.3973 29.2397 54.0895 29.2167 55.6642 29.7121L64.2868 32.4415C64.4142 32.4852 64.5503 32.4968 64.6833 32.4754C64.8162 32.4539 64.9419 32.4001 65.049 32.3185C65.1599 32.2417 65.2501 32.1386 65.3116 32.0185C65.3731 31.8984 65.4039 31.7649 65.4015 31.63V5.40146C65.4015 5.02322 65.2512 4.66046 64.9838 4.393C64.7163 4.12554 64.3536 3.97529 63.9753 3.97529H48.4351Z" fill="white"/>
<path d="M88.4653 36.9413C87.7199 36.9439 86.984 36.7735 86.3156 36.4435C85.6471 36.1135 85.0643 35.633 84.613 35.0397L73.0808 19.8845C72.4294 19.0291 72.0486 17.9985 71.9873 16.925C71.926 15.8515 72.1869 14.7842 72.7365 13.8602L79.392 2.64745C79.8712 1.84352 80.5503 1.17724 81.3632 0.713339C82.1761 0.24944 83.0952 0.0037015 84.0311 7.42295e-09L98.7845 7.42295e-09C99.9889 -6.32066e-05 101.158 0.403624 102.106 1.14654C103.054 1.88946 103.726 2.92872 104.014 4.09821L107.817 19.1223C108.107 20.2663 108.05 21.4706 107.655 22.5825C107.259 23.6944 106.543 24.6639 105.596 25.3679L91.3176 36.0233C90.4891 36.6256 89.4896 36.9473 88.4653 36.9413ZM84.0311 3.97527C83.7793 3.97109 83.5308 4.03328 83.3107 4.15558C83.0906 4.27787 82.9065 4.45597 82.777 4.67196L76.1544 15.8929C76.0057 16.1328 75.9325 16.4119 75.9442 16.6939C75.9559 16.9759 76.0519 17.248 76.22 17.4748L87.744 32.6382C87.8088 32.7303 87.8917 32.808 87.9878 32.8666C88.0839 32.9252 88.1911 32.9634 88.3026 32.9788C88.4141 32.9942 88.5276 32.9864 88.6359 32.956C88.7443 32.9256 88.8453 32.8732 88.9325 32.8021L103.268 22.1304C103.583 21.8956 103.822 21.5723 103.953 21.2016C104.085 20.8309 104.103 20.4295 104.006 20.0485L100.186 5.049C100.108 4.74275 99.9303 4.47111 99.6811 4.27676C99.4319 4.08242 99.1251 3.97636 98.8091 3.97527H84.0311Z" fill="white"/>
<path d="M5.11001 43.8193V44.5078H3.76581V48.5241H2.94618V44.5078H1.63477V43.8193H5.11001Z" fill="white"/>
<path d="M8.25711 44.9582C8.15214 44.7889 8.00246 44.6519 7.82457 44.5622C7.64669 44.4726 7.4475 44.4338 7.24896 44.4501C6.76537 44.4501 6.4785 44.6632 6.4785 45.0648C6.4785 45.4664 6.83095 45.6877 7.48665 45.8353C8.42923 46.0402 8.92101 46.3926 8.92101 47.2369C8.92101 47.9417 8.45382 48.5893 7.28174 48.5893C6.94716 48.617 6.61092 48.5612 6.3033 48.4267C5.99569 48.2922 5.72635 48.0833 5.51953 47.8188L6.14245 47.3844C6.26686 47.5564 6.43289 47.694 6.62498 47.7843C6.81708 47.8746 7.02895 47.9147 7.24076 47.9008C7.88827 47.9008 8.0604 47.6139 8.0604 47.2696C8.0604 46.9254 7.84729 46.6631 7.02766 46.45C6.20802 46.2369 5.68346 45.9008 5.68346 45.0812C5.68346 44.2616 6.15065 43.778 7.24896 43.778C7.56625 43.7469 7.88605 43.8021 8.17458 43.9377C8.46311 44.0733 8.70967 44.2843 8.88823 44.5484L8.25711 44.9582Z" fill="white"/>
<path d="M13.3728 43.8193V46.6143C13.3728 48.0077 12.6598 48.5896 11.6188 48.5896C10.5779 48.5896 9.83203 48.0077 9.83203 46.6225V43.8193H10.6517V46.6225C10.6517 47.5241 10.9713 47.9012 11.6188 47.9012C12.2663 47.9012 12.586 47.5241 12.586 46.6225V43.8193H13.3728Z" fill="white"/>
<path d="M17.3964 48.5241L16.0359 46.3766L15.3392 47.27V48.5241H14.5195V43.8193H15.3392V46.0898L17.0686 43.8193H18.0276L16.5522 45.7209L18.3472 48.5241H17.3964Z" fill="white"/>
<path d="M22.5768 43.8193V46.6143C22.5768 48.0077 21.8637 48.5896 20.8228 48.5896C19.7818 48.5896 19.0605 48.0077 19.0605 46.6225V43.8193H19.8802V46.6225C19.8802 47.5241 20.1998 47.9012 20.8473 47.9012C21.4949 47.9012 21.8145 47.5241 21.8145 46.6225V43.8193H22.5768Z" fill="white"/>
<path d="M25.2656 43.8193C26.3721 43.8193 26.9048 44.2292 26.9048 45.0406C26.9124 45.261 26.8509 45.4783 26.729 45.662C26.607 45.8457 26.4306 45.9867 26.2245 46.0652C26.4723 46.1215 26.6915 46.2651 26.842 46.4698C26.9925 46.6745 27.0643 46.9266 27.0442 47.1799C27.0442 47.8848 26.5934 48.5241 25.4049 48.5241H23.7656V43.8193H25.2656ZM24.5853 45.7455H25.3557C25.9459 45.7455 26.1753 45.475 26.1753 45.0898C26.1753 44.7046 25.9868 44.5078 25.241 44.5078H24.5853V45.7455ZM24.5853 47.8438H25.4049C26.036 47.8438 26.3311 47.5815 26.3311 47.1389C26.3311 46.6963 26.0032 46.4258 25.3065 46.4258H24.5853V47.8438Z" fill="white"/>
<path d="M27.4863 48.5241L29.1256 43.8193H29.8797L31.5189 48.5241H30.6993L30.3223 47.5405H28.683L28.3633 48.5159L27.4863 48.5241ZM28.8715 46.8848H30.1255L29.5026 44.9668L28.8715 46.8848Z" fill="white"/>
<path d="M1.57617 55.9085L3.21544 51.2119H3.96131L5.60057 55.9085H4.78094L4.44489 54.9167H2.74825L2.45318 55.9085H1.57617ZM2.96135 54.2692H4.21539L3.59247 52.3676L2.96135 54.2692Z" fill="white"/>
<path d="M8.88727 55.9085L7.97747 53.9987H7.06768V55.9085H6.24805V51.2119H7.87912C8.96103 51.2119 9.60854 51.6791 9.60854 52.6135C9.6325 52.8852 9.56482 53.1571 9.41627 53.3859C9.26772 53.6147 9.04687 53.7871 8.78891 53.8757L9.79706 55.9085H8.88727ZM7.82174 53.3184C8.49384 53.3184 8.8217 53.1463 8.8217 52.6135C8.8217 52.0807 8.49384 51.9004 7.82174 51.9004H7.06768V53.3184H7.82174Z" fill="white"/>
<path d="M13.6092 51.2119V51.9004H12.2896V55.9085H11.47V51.9004H10.1094V51.2119H13.6092Z" fill="white"/>
<path d="M16.6997 53.2766C16.4238 52.9914 16.2607 52.6157 16.2407 52.2193C16.2443 52.0658 16.2798 51.9147 16.345 51.7757C16.4101 51.6367 16.5034 51.5128 16.6191 51.4118C16.7347 51.3108 16.8701 51.235 17.0166 51.1891C17.1632 51.1433 17.3176 51.1285 17.4702 51.1456C18.2898 51.1456 18.6832 51.6128 18.6832 52.08C18.6832 52.5471 18.1915 52.9652 17.6915 53.3258L18.7406 54.4897C18.8386 54.2449 18.886 53.9828 18.8799 53.7192H19.6176C19.6217 54.1903 19.494 54.6531 19.2488 55.0553L20.0684 55.8749H19.0849L18.7734 55.5389C18.393 55.8147 17.9316 55.956 17.462 55.9405C17.2712 55.9644 17.0774 55.9486 16.893 55.894C16.7086 55.8395 16.5375 55.7473 16.3904 55.6233C16.2433 55.4994 16.1235 55.3463 16.0385 55.1738C15.9535 55.0012 15.9052 54.813 15.8965 54.6208C15.9165 54.3497 15.9995 54.087 16.1389 53.8536C16.2784 53.6203 16.4704 53.4227 16.6997 53.2766ZM18.298 55.0553L17.1259 53.7602C16.9925 53.854 16.8814 53.9761 16.8006 54.1178C16.7198 54.2595 16.6714 54.4173 16.6587 54.5799C16.6587 55.0225 16.9948 55.293 17.4784 55.293C17.7693 55.2982 18.055 55.2153 18.298 55.0553ZM17.2981 52.8668C17.6505 52.6291 17.9456 52.4078 17.9456 52.1291C17.9405 52.0734 17.9243 52.0192 17.8979 51.9698C17.8714 51.9204 17.8354 51.8769 17.7918 51.8417C17.7482 51.8065 17.698 51.7805 17.6442 51.7651C17.5903 51.7497 17.534 51.7453 17.4784 51.7521C17.4158 51.7472 17.3528 51.7559 17.2939 51.7776C17.235 51.7993 17.1815 51.8336 17.1371 51.878C17.0927 51.9224 17.0584 51.9759 17.0367 52.0348C17.015 52.0937 17.0063 52.1567 17.0112 52.2193C17.0327 52.4609 17.1336 52.6886 17.2981 52.8668Z" fill="white"/>
<path d="M22.625 55.9085V51.2119H24.2151C25.2724 51.2119 25.9773 51.7775 25.9773 53.2774V53.843C25.9773 55.3429 25.2724 55.9085 24.2151 55.9085H22.625ZM25.1904 53.843V53.2774C25.1904 52.3102 24.8872 51.9004 24.2151 51.9004H23.3955V55.2282H24.2151C24.8872 55.2282 25.1904 54.8101 25.1904 53.843Z" fill="white"/>
<path d="M29.8441 51.2119V51.9004H27.754V53.1381H29.6392V53.8184H27.754V55.2282H29.8441V55.9085H26.959V51.2119H29.8441Z" fill="white"/>
<path d="M33.1814 52.3429C33.0751 52.1729 32.9239 52.0355 32.7446 51.9459C32.5653 51.8562 32.3648 51.8177 32.165 51.8347C31.6814 51.8347 31.3946 52.056 31.3946 52.4494C31.3946 52.8428 31.747 53.0723 32.4027 53.2199C33.3535 53.4248 33.8371 53.7772 33.8371 54.6215C33.8371 55.3264 33.3699 55.9739 32.2388 55.9739C31.9042 56.0016 31.568 55.9458 31.2603 55.8113C30.9527 55.6768 30.6834 55.4679 30.4766 55.2034L31.0995 54.769C31.2239 54.941 31.3899 55.0786 31.582 55.1689C31.7741 55.2592 31.986 55.2993 32.1978 55.2854C32.8453 55.2854 33.0174 54.9985 33.0174 54.6542C33.0174 54.31 32.8043 54.0477 31.9847 53.8346C31.1651 53.6215 30.5995 53.2773 30.5995 52.4576C30.5995 51.638 31.0667 51.1544 32.1732 51.1544C32.4906 51.1224 32.8107 51.1772 33.0994 51.3129C33.3881 51.4486 33.6345 51.6601 33.8125 51.9248L33.1814 52.3429Z" fill="white"/>
<path d="M35.6321 55.9085H34.8125V51.2119H35.6321V55.9085Z" fill="white"/>
<path d="M40.1592 53.4974V53.8581C40.1592 55.3334 39.4871 55.9727 38.4298 55.9727C37.3725 55.9727 36.6758 55.3334 36.6758 53.8581V53.2761C36.6758 51.7598 37.3807 51.1286 38.4298 51.1286C38.862 51.104 39.2865 51.2513 39.6105 51.5384C39.9345 51.8256 40.1318 52.2293 40.1592 52.6614H39.397C39.3761 52.428 39.2651 52.2119 39.0876 52.0589C38.9102 51.9059 38.6801 51.828 38.4462 51.8417C37.8233 51.8417 37.479 52.2516 37.479 53.2679V53.8663C37.479 54.8826 37.8233 55.2924 38.4462 55.2924C39.0691 55.2924 39.3396 54.9154 39.397 54.1859H38.4626V53.4974H40.1592Z" fill="white"/>
<path d="M44.5335 51.2119V55.9085H43.8286L41.9107 52.7119V55.9085H41.1484V51.2119H41.7959L43.7385 54.4905V51.2119H44.5335Z" fill="white"/>
<path d="M4.97063 58.5947V59.2832H2.87237V60.652H4.76572V61.3323H2.87237V63.3159H2.05273V58.5947H4.97063Z" fill="white"/>
<path d="M8.68393 58.5947V59.2832H6.59387V60.5209H8.47903V61.2012H6.59387V62.611H8.68393V63.2913H5.79883V58.5947H8.68393Z" fill="white"/>
<path d="M12.0204 59.7352C11.9158 59.5631 11.7653 59.4236 11.5857 59.3323C11.4062 59.2411 11.2047 59.2018 11.004 59.2189C10.5205 59.2189 10.2336 59.4402 10.2336 59.8336C10.2336 60.227 10.586 60.4647 11.2417 60.6041C12.1925 60.809 12.6843 61.1614 12.6843 62.0056C12.6843 62.7105 12.2089 63.3581 11.045 63.3581C10.7115 63.3867 10.3762 63.3311 10.0698 63.1965C9.76332 63.0619 9.49555 62.8525 9.29102 62.5876L9.90574 62.1614C10.0321 62.3307 10.1987 62.4659 10.3905 62.5546C10.5823 62.6434 10.7932 62.6829 11.004 62.6696C11.6516 62.6696 11.8237 62.3827 11.8237 62.0384C11.8237 61.6942 11.6106 61.4319 10.7991 61.2188C9.9877 61.0057 9.44675 60.6532 9.44675 59.8336C9.44675 59.0139 9.90574 58.5304 11.0122 58.5304C11.3296 58.4984 11.6497 58.5532 11.9384 58.6889C12.2271 58.8245 12.4736 59.0361 12.6515 59.3008L12.0204 59.7352Z" fill="white"/>
<path d="M16.642 58.5947V59.2832H15.2896V63.2913H14.47V59.2832H13.1094V58.5947H16.642Z" fill="white"/>
<path d="M18.1985 63.2913H17.3789V58.5947H18.1985V63.2913Z" fill="white"/>
<path d="M19.8306 58.5947L20.9862 62.0372L22.1255 58.5947H22.9861L21.3469 63.2913H20.6256L18.9863 58.5947H19.8306Z" fill="white"/>
<path d="M23.2168 63.2913L24.8561 58.5947H25.6019L27.2412 63.2913H26.4216L26.0773 62.2913H24.3807L24.061 63.2585L23.2168 63.2913ZM24.602 61.652H25.856L25.2249 59.7504L24.602 61.652Z" fill="white"/>
<path d="M28.6806 62.611H30.7707V63.2913H27.9102V58.5947H28.7298L28.6806 62.611Z" fill="white"/>
</svg>
