<svg xmlns="http://www.w3.org/2000/svg" id="logo" viewBox="0 0 760.53 446.05"><g id="レイヤー_2" data-name="レイヤー 2"><g id="レイヤー_1-2" data-name="レイヤー 1"><path d="M39,263.51a34,34,0,0,1-28.64-52.26l39.1-61.43a17.94,17.94,0,0,0,.49-18.51L4.44,50.72a33.68,33.68,0,0,1,.25-33.86A33.67,33.67,0,0,1,34.05,0h158.3A34,34,0,0,1,222,50.71h0L191.31,105a18.05,18.05,0,0,0,.2,18l46.39,78.13a34,34,0,0,1-27,51.28l-169.64,11C40.47,263.48,39.73,263.51,39,263.51ZM34.05,28a6,6,0,0,0-5.22,9l45.5,80.59a45.9,45.9,0,0,1-1.26,47.32L34,226.28a6,6,0,0,0,5.45,9.21l169.63-11a6,6,0,0,0,4.78-9.05l-46.4-78.12a46.13,46.13,0,0,1-.5-46.1L197.58,37h0a6,6,0,0,0-5.23-9Z"/><path d="M300.32,257.28a34,34,0,0,1-33.58-28.76l-18-114.92a37.9,37.9,0,0,1,5.9-26.89l41.58-62.59h0A53.89,53.89,0,0,1,341.24,0H450.57a38,38,0,0,1,38,38V222.69A34,34,0,0,1,444.3,255.1l-60.73-19.24a26.18,26.18,0,0,0-16.37.22L311.47,255.4A34.08,34.08,0,0,1,300.32,257.28ZM319.58,39.61,278,102.2a10,10,0,0,0-1.55,7.08L294.4,224.2a6,6,0,0,0,7.9,4.74L358,209.62a54.37,54.37,0,0,1,34-.45l60.72,19.24a6,6,0,0,0,7.82-5.72V38a10,10,0,0,0-10-10H341.24a26,26,0,0,0-21.66,11.61Z"/><path d="M622.86,260.09a34,34,0,0,1-27.13-13.38L514.56,140a37.84,37.84,0,0,1-2.43-42.39l46.83-79h0A38.16,38.16,0,0,1,591.64,0h104A38,38,0,0,1,732.5,28.69l26.74,105.74a41.89,41.89,0,0,1-15.61,44l-100.5,75A33.83,33.83,0,0,1,622.86,260.09ZM583,32.9l-46.83,79a9.94,9.94,0,0,0,.64,11.15L618,229.76a6,6,0,0,0,8.37,1.18l100.5-75a14,14,0,0,0,5.2-14.65L705.35,35.55A10,10,0,0,0,695.66,28h-104a10.06,10.06,0,0,0-8.6,4.9Z"/><path d="M36,308.49v4.85H26.52v28.28H21V313.34H11.4v-4.85Z"/><path d="M58.2,316.51c-1.63-2.26-3.4-3.6-7.15-3.6-3.41,0-5.42,1.54-5.42,4.32,0,3.17,2.49,4.42,7.1,5.42,6.67,1.44,10.13,3.94,10.13,9.89,0,4.95-3.31,9.51-11.28,9.51-5.66,0-9.65-1.73-12.39-5.43l4.37-3a8.88,8.88,0,0,0,7.73,3.6c4.56,0,6-2,6-4.42,0-2.64-1.49-4.27-7.25-5.52-6.38-1.34-10-4.41-10-10,0-5,3.26-9.17,11-9.17,5.28,0,9,1.78,11.33,5.43Z"/><path d="M94.2,308.49v19.68c0,9.8-5,13.88-12.38,13.88S69.43,338,69.43,328.22V308.49H75v19.73c0,6.34,2.26,9,6.82,9s6.82-2.64,6.82-9V308.49Z"/><path d="M122.52,341.62l-9.6-15.12L108,332.78v8.84h-5.57V308.49H108v16l12.19-16H127l-10.47,13.35,12.63,19.78Z"/><path d="M159,308.49v19.68c0,9.8-5,13.88-12.38,13.88s-12.39-4.08-12.39-13.83V308.49h5.57v19.73c0,6.34,2.26,9,6.82,9s6.82-2.64,6.82-9V308.49Z"/><path d="M177.92,308.49c7.77,0,11.76,2.88,11.76,8.59a7.49,7.49,0,0,1-4.85,7.21,7.48,7.48,0,0,1,5.9,7.82c0,5-3.17,9.51-11.76,9.51H167.26V308.49ZM172.83,322h5.42c4.13,0,5.86-1.87,5.86-4.61s-1.3-4.13-6.58-4.13h-4.7Zm0,14.79h5.81c4.46,0,6.52-1.83,6.52-5,0-3.5-2.3-5-7.2-5h-5.13Z"/><path d="M193.56,341.62l11.52-33.13h5.28l11.52,33.13H216l-2.26-6.87H201.77l-2.26,6.87ZM203.31,330h8.83l-4.42-13.39Z"/><path d="M11.16,393.62l11.52-33.13H28l11.53,33.13H33.58l-2.26-6.87H19.37l-2.25,6.87ZM20.91,382h8.83l-4.42-13.39Z"/><path d="M62.62,393.62l-6.38-13.45H49.8v13.45H44.23V360.49H55.52c7.63,0,12.19,3.32,12.19,9.89,0,4.56-2.16,7.49-6,8.88l7.05,14.36Zm-7.49-18.25c4.71,0,7-1.24,7-5s-2.3-5-7-5H49.8v10Z"/><path d="M95.84,360.49v4.85H86.33v28.28H80.76V365.34H71.21v-4.85Z"/><path d="M117.63,375.09c-1.92-2.36-3.27-4.66-3.27-7.49,0-4.56,3.65-7.54,8.69-7.54,6,0,8.55,3.31,8.55,6.58,0,3.69-3.51,6.24-7,8.78l7.39,8.16a14,14,0,0,0,1-5.42h5.18a17.67,17.67,0,0,1-2.59,9.41l5.52,6.05h-6.67l-2.21-2.4a15,15,0,0,1-9.22,2.83c-7.29,0-11-4.56-11-9.27C112,380.37,114.6,377.44,117.63,375.09Zm11.23,12.48-8.26-9.12c-1.92,1.68-3.26,3.5-3.26,5.76,0,3.07,2.35,5,5.81,5A9.92,9.92,0,0,0,128.86,387.57Zm-7.06-15.36c2.5-1.68,4.56-3.27,4.56-5.24,0-1.24-1-2.64-3.26-2.64a3,3,0,0,0-3.31,3.27A8.19,8.19,0,0,0,121.8,372.21Z"/><path d="M159.34,393.62V360.49h11.18c7.44,0,12.44,4,12.44,14.6V379c0,10.61-5,14.6-12.44,14.6Zm18-14.6v-3.93c0-6.82-2.12-9.75-6.87-9.75h-5.61v23.48h5.61C175.27,388.82,177.39,385.84,177.39,379Z"/><path d="M210.17,360.49v4.85H195.43v8.74h13.3v4.8h-13.3v9.94h14.74v4.8h-20.3V360.49Z"/><path d="M233.64,368.51c-1.63-2.26-3.41-3.6-7.15-3.6-3.41,0-5.42,1.54-5.42,4.32,0,3.17,2.49,4.42,7.1,5.42,6.67,1.44,10.13,3.94,10.13,9.89,0,4.95-3.31,9.51-11.28,9.51-5.67,0-9.65-1.73-12.39-5.43l4.37-3a8.88,8.88,0,0,0,7.73,3.6c4.56,0,6-2,6-4.42,0-2.64-1.49-4.27-7.25-5.52-6.38-1.34-10-4.41-10-10,0-5,3.26-9.17,11-9.17,5.28,0,9,1.78,11.33,5.43Z"/><path d="M250.92,393.62h-5.57V360.49h5.57Z"/><path d="M282.84,376.62v2.55c0,10.41-4.75,14.88-12.19,14.88s-12.39-4.47-12.39-14.88v-4c0-10.66,5-15.12,12.39-15.12,6.72,0,11,3.75,12.05,10.71h-5.38c-.81-3.85-2.93-5.86-6.67-5.86-4.42,0-6.82,2.88-6.82,10v4.23c0,7.15,2.4,10,6.82,10,4.22,0,6.34-2.5,6.72-7.73h-6.58v-4.85Z"/><path d="M313.56,360.49v33.13h-4.94L295.13,371.1v22.52h-5.38V360.49h4.8l13.64,22.8v-22.8Z"/><path d="M35,412.49v4.85H20.28v9.51h13.3v4.8H20.28v14H14.72V412.49Z"/><path d="M61.18,412.49v4.85H46.44v8.74h13.3v4.8H46.44v9.94H61.18v4.8H40.87V412.49Z"/><path d="M84.65,420.51c-1.63-2.26-3.41-3.6-7.15-3.6-3.41,0-5.43,1.54-5.43,4.32,0,3.17,2.5,4.42,7.11,5.42,6.67,1.44,10.13,3.94,10.13,9.89,0,4.95-3.31,9.51-11.28,9.51-5.67,0-9.65-1.73-12.39-5.43l4.37-3a8.88,8.88,0,0,0,7.73,3.6c4.56,0,6-2,6-4.42,0-2.64-1.49-4.27-7.25-5.52-6.38-1.34-10-4.41-10-10,0-5,3.26-9.17,11-9.17,5.28,0,9,1.78,11.33,5.43Z"/><path d="M117.2,412.49v4.85h-9.51v28.28h-5.57V417.34H92.57v-4.85Z"/><path d="M128.19,445.62h-5.57V412.49h5.57Z"/><path d="M139.61,412.49l8.16,24.25L156,412.49h6.09l-11.76,33.13h-5.09l-11.76-33.13Z"/><path d="M163.46,445.62,175,412.49h5.28l11.52,33.13h-5.91l-2.25-6.87h-12l-2.25,6.87ZM173.21,434H182l-4.41-13.39Z"/><path d="M202.11,440.82h14.73v4.8h-20.3V412.49h5.57Z"/></g></g></svg>