<svg xmlns="http://www.w3.org/2000/svg" viewBox="0 0 253.75 1163.6"><defs><style>.cls-1{fill:#fff;}</style></defs><g id="レイヤー_2" data-name="レイヤー 2"><g id="レイヤー_1-2" data-name="レイヤー 1"><path class="cls-1" d="M44.51,263.51a34,34,0,0,1-28.64-52.26L55,149.82a17.94,17.94,0,0,0,.49-18.51L10,50.72a33.66,33.66,0,0,1,.25-33.86A33.65,33.65,0,0,1,39.58,0h158.3a34,34,0,0,1,29.61,50.71h0L196.84,105a18.05,18.05,0,0,0,.2,18l46.39,78.13a34,34,0,0,1-27,51.28l-169.64,11C46,263.48,45.26,263.51,44.51,263.51ZM39.58,28a6,6,0,0,0-5.23,9l45.5,80.59a45.93,45.93,0,0,1-1.25,47.32L39.49,226.28a6,6,0,0,0,5.45,9.21l169.64-11a6,6,0,0,0,4.77-9.05L173,137.35a46.1,46.1,0,0,1-.5-46.1L203.11,37h0a6,6,0,0,0-5.23-9Z"/><path class="cls-1" d="M54.73,544a34,34,0,0,1-33.57-28.76L3.2,400.32a37.9,37.9,0,0,1,5.9-26.89l41.58-62.59h0a53.89,53.89,0,0,1,45-24.12H205a38,38,0,0,1,38,38V509.41a34,34,0,0,1-44.27,32.41L138,522.58a26.18,26.18,0,0,0-16.37.22L65.88,542.12A34,34,0,0,1,54.73,544ZM74,326.33,32.42,388.92A10,10,0,0,0,30.87,396l18,114.92a6,6,0,0,0,7.9,4.74l55.73-19.32a54.37,54.37,0,0,1,34-.45l60.72,19.24a6,6,0,0,0,7.82-5.72V324.72a10,10,0,0,0-10-10H95.66A26,26,0,0,0,74,326.33Z"/><path class="cls-1" d="M116.09,828.64A34,34,0,0,1,89,815.26L7.78,708.53a37.86,37.86,0,0,1-2.43-42.39l46.83-79h0a38.19,38.19,0,0,1,32.69-18.62h104a38,38,0,0,1,36.84,28.69L252.46,703a41.87,41.87,0,0,1-15.6,44l-100.51,75A33.76,33.76,0,0,1,116.09,828.64ZM76.27,601.45l-46.84,79a10,10,0,0,0,.64,11.16l81.17,106.73a6,6,0,0,0,8.37,1.18l100.5-75a13.93,13.93,0,0,0,5.2-14.65L198.58,604.1a10,10,0,0,0-9.7-7.55h-104a10,10,0,0,0-8.6,4.9Z"/><path class="cls-1" d="M195.44,886.06h-4.85v-9.5H162.32V871h28.27v-9.55h4.85Z"/><path class="cls-1" d="M187.42,908.24c2.26-1.63,3.6-3.41,3.6-7.15,0-3.41-1.53-5.43-4.32-5.43-3.17,0-4.41,2.5-5.42,7.11-1.44,6.67-3.94,10.13-9.89,10.13-4.95,0-9.51-3.32-9.51-11.29,0-5.66,1.73-9.64,5.43-12.38l3,4.37a8.87,8.87,0,0,0-3.6,7.73c0,4.56,2,6,4.42,6,2.64,0,4.27-1.49,5.52-7.25,1.34-6.39,4.42-10,10-10,5,0,9.17,3.27,9.17,11,0,5.28-1.78,9-5.42,11.33Z"/><path class="cls-1" d="M195.44,944.24H175.76c-9.8,0-13.88-5-13.88-12.39s4.08-12.38,13.83-12.38h19.73V925H175.71c-6.34,0-9,2.25-9,6.81s2.64,6.82,9,6.82h19.73Z"/><path class="cls-1" d="M162.32,972.56l15.12-9.6-6.29-4.9h-8.83v-5.57h33.12v5.57h-16l16,12.19v6.82l-13.35-10.46-19.77,12.62Z"/><path class="cls-1" d="M195.44,1009H175.76c-9.8,0-13.88-5-13.88-12.39s4.08-12.38,13.83-12.38h19.73v5.57H175.71c-6.34,0-9,2.25-9,6.81s2.64,6.82,9,6.82h19.73Z"/><path class="cls-1" d="M195.44,1028c0,7.78-2.88,11.76-8.59,11.76a7.47,7.47,0,0,1-7.2-4.85,7.5,7.5,0,0,1-7.83,5.91c-5,0-9.5-3.17-9.5-11.76v-11.72h33.12Zm-13.54-5.09v5.43c0,4.12,1.87,5.85,4.61,5.85s4.13-1.29,4.13-6.57v-4.71Zm-14.78,0v5.81c0,4.46,1.82,6.53,5,6.53,3.5,0,5-2.31,5-7.2v-5.14Z"/><path class="cls-1" d="M162.32,1043.6l33.12,11.52v5.28l-33.12,11.52V1066l6.86-2.25v-12l-6.86-2.26Zm11.66,9.74v8.83l13.39-4.41Z"/><path class="cls-1" d="M110.32,861.2l33.12,11.52V878l-33.12,11.52v-5.9l6.86-2.26v-12l-6.86-2.26ZM122,870.94v8.84l13.39-4.42Z"/><path class="cls-1" d="M110.32,912.65l13.44-6.38v-6.43H110.32v-5.57h33.12v11.28c0,7.63-3.31,12.19-9.89,12.19-4.56,0-7.49-2.16-8.88-6l-14.35,7.06Zm18.24-7.48c0,4.7,1.25,7,5,7s5-2.3,5-7v-5.33h-10Z"/><path class="cls-1" d="M143.44,945.87h-4.85v-9.5H110.32V930.8h28.27v-9.56h4.85Z"/><path class="cls-1" d="M128.84,967.66c2.36-1.92,4.66-3.26,7.5-3.26,4.56,0,7.53,3.64,7.53,8.68,0,6-3.31,8.55-6.58,8.55-3.69,0-6.24-3.5-8.78-7L120.35,982a13.85,13.85,0,0,0,5.42,1v5.19a17.68,17.68,0,0,1-9.41-2.6l-6,5.52v-6.67l2.4-2.21a14.91,14.91,0,0,1-2.84-9.21c0-7.3,4.56-11,9.27-11C123.57,962,126.49,964.64,128.84,967.66Zm-12.48,11.23,9.13-8.25c-1.68-1.92-3.51-3.27-5.76-3.27-3.08,0-5,2.35-5,5.81A10,10,0,0,0,116.36,978.89Zm15.37-7c1.68,2.49,3.26,4.56,5.23,4.56,1.25,0,2.64-1.06,2.64-3.27a3,3,0,0,0-3.26-3.31A8.08,8.08,0,0,0,131.73,971.84Z"/><path class="cls-1" d="M110.32,1009.37h33.12v11.19c0,7.44-4,12.43-14.6,12.43h-3.93c-10.61,0-14.59-5-14.59-12.43Zm14.59,18.05h3.93c6.82,0,9.75-2.11,9.75-6.86v-5.62H115.12v5.62C115.12,1025.31,118.09,1027.42,124.91,1027.42Z"/><path class="cls-1" d="M143.44,1060.21h-4.85v-14.74h-8.74v13.3h-4.8v-13.3h-9.93v14.74h-4.8V1039.9h33.12Z"/><path class="cls-1" d="M135.42,1083.68c2.26-1.64,3.6-3.41,3.6-7.16,0-3.4-1.53-5.42-4.32-5.42-3.17,0-4.41,2.5-5.42,7.1-1.44,6.68-3.94,10.13-9.89,10.13-5,0-9.51-3.31-9.51-11.28,0-5.66,1.73-9.65,5.43-12.38l3,4.37a8.85,8.85,0,0,0-3.6,7.72c0,4.57,2,6,4.42,6,2.64,0,4.27-1.48,5.52-7.24,1.34-6.39,4.42-10,10-10,5,0,9.17,3.27,9.17,11,0,5.28-1.78,9-5.42,11.33Z"/><path class="cls-1" d="M110.32,1101v-5.57h33.12V1101Z"/><path class="cls-1" d="M127.31,1132.88h-2.55c-10.41,0-14.88-4.76-14.88-12.2s4.47-12.38,14.88-12.38h4c10.66,0,15.12,5,15.12,12.38,0,6.72-3.74,11-10.7,12v-5.37c3.84-.82,5.85-2.93,5.85-6.68,0-4.41-2.88-6.81-10-6.81h-4.23c-7.15,0-10,2.4-10,6.81,0,4.23,2.5,6.34,7.73,6.72v-6.57h4.85Z"/><path class="cls-1" d="M143.44,1163.6H110.32v-4.95l22.51-13.49H110.32v-5.37h33.12v4.8l-22.8,13.63h22.8Z"/><path class="cls-1" d="M91.44,885.06H86.59V870.32h-9.5v13.3H72.28v-13.3h-14v-5.57H91.44Z"/><path class="cls-1" d="M91.44,911.22H86.59V896.48H77.85v13.3h-4.8v-13.3H63.12v14.74h-4.8V890.91H91.44Z"/><path class="cls-1" d="M83.42,934.69c2.26-1.64,3.6-3.41,3.6-7.16,0-3.4-1.53-5.42-4.32-5.42-3.17,0-4.41,2.5-5.42,7.1-1.44,6.68-3.94,10.13-9.89,10.13-5,0-9.51-3.31-9.51-11.28,0-5.66,1.73-9.65,5.43-12.38l3,4.37a8.85,8.85,0,0,0-3.6,7.72c0,4.56,2,6,4.42,6,2.64,0,4.27-1.48,5.52-7.24,1.34-6.39,4.42-10,10-10,5,0,9.17,3.27,9.17,11,0,5.28-1.78,9-5.42,11.33Z"/><path class="cls-1" d="M91.44,967.23H86.59v-9.5H58.32v-5.57H86.59V942.6h4.85Z"/><path class="cls-1" d="M58.32,978.22v-5.57H91.44v5.57Z"/><path class="cls-1" d="M91.44,989.64,67.2,997.81l24.24,8.25v6.1L58.32,1000.4v-5.09l33.12-11.76Z"/><path class="cls-1" d="M58.32,1013.5,91.44,1025v5.28l-33.12,11.52v-5.9l6.86-2.26v-12l-6.86-2.26ZM70,1023.24v8.84l13.39-4.42Z"/><path class="cls-1" d="M63.12,1052.14v14.74h-4.8v-20.31H91.44v5.57Z"/></g></g></svg>